<?xml version="1.0" standalone="no"?>
<!DOCTYPE svg PUBLIC "-//W3C//DTD SVG 20010904//EN"
 "http://www.w3.org/TR/2001/REC-SVG-20010904/DTD/svg10.dtd">
<svg version="1.0" xmlns="http://www.w3.org/2000/svg"
 width="700.000000pt" height="300.000000pt" viewBox="0 0 700.000000 300.000000"
 preserveAspectRatio="xMidYMid meet">

<g transform="translate(0.000000,300.000000) scale(0.100000,-0.100000)"
fill="#000000" stroke="none">
<path d="M895 2104 c-104 -21 -125 -27 -124 -37 0 -7 9 -34 18 -62 16 -46 20
-50 47 -47 166 15 225 14 291 -6 79 -24 140 -71 179 -138 14 -24 30 -44 36
-44 7 0 77 43 106 66 2 1 -8 26 -24 54 -35 65 -110 135 -178 166 -91 41 -264
65 -351 48z"/>
<path d="M3475 2103 c-161 -21 -309 -119 -389 -256 -92 -156 -119 -423 -65
-635 38 -152 140 -292 256 -355 57 -30 187 -67 240 -67 l33 0 0 69 0 68 -59 7
c-114 13 -220 86 -272 187 -50 99 -72 258 -58 422 20 236 119 375 292 411 38
8 71 16 73 18 6 7 -8 138 -15 137 -3 -1 -19 -4 -36 -6z"/>
<path d="M3592 2045 c3 -36 8 -68 10 -70 3 -3 29 -9 58 -15 221 -42 320 -199
320 -510 0 -195 -36 -321 -115 -409 -41 -45 -136 -95 -202 -106 l-43 -7 0 -69
c0 -79 -3 -78 99 -54 212 50 359 210 406 439 19 94 21 295 5 387 -13 73 -51
177 -82 228 -83 135 -230 225 -402 246 l-59 7 5 -67z"/>
<path d="M1900 1479 c0 -485 3 -609 13 -603 6 4 40 25 75 47 l62 39 0 564 0
564 -75 0 -75 0 0 -611z"/>
<path d="M4530 2030 l0 -60 334 0 c203 0 337 -4 341 -10 5 -7 -194 -299 -363
-534 -45 -62 -36 -57 158 91 l154 118 113 160 113 160 0 68 0 67 -425 0 -425
0 0 -60z"/>
<path d="M5681 2068 c16 -31 381 -672 384 -676 2 -2 21 31 43 73 l40 77 -156
274 -157 273 -83 1 c-83 0 -83 0 -71 -22z"/>
<path d="M6395 1828 c-95 -167 -149 -272 -148 -288 0 -14 14 -54 30 -89 l30
-63 196 346 c108 190 197 348 197 351 0 3 -35 5 -78 5 l-78 0 -149 -262z"/>
<path d="M640 2006 c-110 -80 -196 -223 -226 -375 -26 -131 -16 -339 21 -450
61 -181 177 -302 346 -363 55 -19 84 -23 201 -23 75 0 139 3 143 7 4 4 -2 33
-12 65 l-20 58 -104 1 c-115 1 -183 20 -257 74 -112 81 -172 237 -172 447 0
191 47 332 138 421 l48 47 -20 63 c-11 34 -25 62 -30 62 -6 0 -31 -15 -56 -34z"/>
<path d="M6151 1396 l-41 -75 0 -256 0 -255 75 0 75 0 0 255 0 254 -34 76 -33
77 -42 -76z"/>
<path d="M4834 1307 c-158 -120 -163 -124 -248 -245 l-86 -123 0 -65 0 -64
440 0 440 0 0 60 0 60 -350 0 c-300 0 -350 2 -350 15 0 12 163 252 297 438 19
26 31 47 26 46 -4 0 -81 -55 -169 -122z"/>
<path d="M1306 1116 c-34 -69 -68 -109 -125 -147 l-24 -15 18 -55 c9 -29 21
-58 26 -63 25 -28 179 114 222 207 44 94 44 93 -12 122 -28 14 -54 25 -59 25
-5 0 -25 -33 -46 -74z"/>
<path d="M2041 875 c-46 -30 -86 -57 -89 -60 -3 -3 157 -5 356 -5 l362 0 0 60
0 60 -272 -1 -273 0 -84 -54z"/>
</g>
</svg>
